# xmcd CD database file
#
# Track frame offsets:
#	150
#	21149
#	43089
#	64047
#	81045
#	101823
#	117358
#	137070
#	158020
#	180479
#	202789
#	225189
#	241890
#	259233
#	276706
#	293998
#	312444
#
# Disc length: 4457 seconds
#
# Revision: 2
# Processed by: cddbd v1.4PL0 Copyright (c) Steve Scherf et al.
# Submitted via: CDex 1.50beta10
#
DISCID=ec116711
DTITLE=Deor - Forever love
DYEAR=2003
DGENRE=New Age
TTITLE0=Deor - 爱我2000
TTITLE1=Deor - I Believe (HG)
TTITLE2=Deor - 如果你爱他
TTITLE3=Deor - 我不怕
TTITLE4=Deor -  爱，值得（正）
TTITLE5=Deor - 我们都会错
TTITLE6=Deor -  痴心绝对
TTITLE7=Deor - 告白
TTITLE8=Deor -  在KTV过夜
TTITLE9=Deor - 凌晨3点钟
TTITLE10=Deor -  爱情诺曼底（正）
TTITLE11=Deor - 我的麦克风
TTITLE12=Deor -  我走走走
TTITLE13=Deor -  爱不够
TTITLE14=Deor -  非同寻常
TTITLE15=Deor -  爱上未来的你
TTITLE16=Deor - I believe
EXTD=YEAR: 2003
EXTT0=
EXTT1=
EXTT2=
EXTT3=
EXTT4=
EXTT5=
EXTT6=
EXTT7=
EXTT8=
EXTT9=
EXTT10=
EXTT11=
EXTT12=
EXTT13=
EXTT14=
EXTT15=
EXTT16=
PLAYORDER=
